<svg width="424" height="189" viewBox="0 0 424 189" fill="none" xmlns="http://www.w3.org/2000/svg">
<rect x="0.620117" y="0.724854" width="422.76" height="187.55" rx="13" fill="#9A8C98"/>
<path d="M320.517 94.0422C320.478 95.3724 320.38 97.2107 320.224 99.5578L320.224 126.168C321.689 126.129 323.117 126.256 324.504 126.549C324.621 126.686 324.758 126.813 324.914 126.93V127.957L326.966 127.693V119.537L329.37 119.538C329.506 119.381 329.643 119.254 329.78 119.156V117.308L330.396 117.309V114.697C331.197 114.619 332.438 114.462 334.119 114.228C335.702 114.051 337.158 113.963 338.487 113.963V115.43L339.629 115.431V117.66L344.437 117.661C344.535 117.523 344.652 117.405 344.789 117.307C344.809 116.467 344.867 114.403 344.965 111.117C345.317 112.721 345.513 113.181 345.551 112.496L345.903 112.497L345.903 117.542L347.75 117.543V110.296L348.248 110.296C348.346 110.413 348.473 110.53 348.629 110.648C348.688 112.858 348.873 115.087 349.186 117.336C349.831 117.375 350.329 117.668 350.681 118.216C352.557 118.255 353.867 118.382 354.609 118.598C355.352 118.794 355.889 118.96 356.221 119.096C356.534 119.234 356.798 119.498 357.013 119.889V126.93L362.377 126.931L362.377 136.436L69.6821 136.437C69.7408 132.622 69.8387 128.202 69.9753 123.174L73.4343 123.175C73.7667 123.84 74.0105 124.221 74.1671 124.319C74.3623 124.475 74.89 124.593 75.75 124.671C76.0039 124.475 76.5122 124.348 77.2743 124.29L78.4469 122.06L82.2576 122.441C83.0978 123.732 83.4788 126.461 83.4009 130.626L83.7819 130.627V131.008C84.0551 130.91 84.3289 130.822 84.6027 130.744V130.597L84.7493 130.598L84.7493 113.552L88.5893 113.552C88.57 114.119 88.7359 114.461 89.0877 114.578C89.3415 114.656 90.065 114.686 91.2569 114.666L91.6673 112.085L100.11 112.085V115.018L100.139 115.019V115.048L101.517 115.048V117.278L104.331 117.278C104.624 118.099 104.78 119.37 104.8 121.091C104.82 122.069 104.8 123.497 104.741 125.375L112.89 125.375V131.302L113.946 131.302V119.889C114.668 119.635 115.714 119.517 117.082 119.537V117.689L126.404 117.689C126.58 118.334 126.746 118.784 126.902 119.038C127 119.195 127.137 119.342 127.312 119.478V113.229L127.43 113.23C127.879 113.171 128.534 112.985 129.394 112.672C130.137 112.398 130.723 112.34 131.153 112.496V113.229C131.465 113.405 131.68 113.483 131.797 113.464C131.875 113.445 132.051 113.366 132.325 113.229C132.501 112.936 132.618 112.32 132.677 111.381L139.595 111.382V103.871C140.436 103.596 141.783 103.489 143.64 103.548C144.109 103.215 145.497 103.059 147.803 103.078C148.408 103.078 149.073 103.088 149.796 103.108C153.02 103.225 154.857 103.47 155.307 103.841C155.346 103.86 155.375 103.88 155.395 103.9V114.256L155.424 114.257V114.315L158.062 114.315V97.3281C158.571 97.1326 159.078 97.0053 159.587 96.9467C160.173 97.3181 161.365 97.4941 163.163 97.4747C164.14 97.4747 165.508 97.4261 167.267 97.3281L167.267 123.556L167.531 123.557C167.687 123.42 167.951 123.302 168.322 123.204L168.322 113.962L173.042 113.963V111.028L175.387 111.029L175.387 117.659L175.856 117.66V117.63L176.002 117.631L176.002 93.9542C177.097 93.8761 179.246 93.5041 182.451 92.8393L196.492 93.2207V106.892L201.857 106.893V82.0428L202.091 82.0434C202.443 79.5978 202.941 77.3874 203.586 75.4124C204.212 73.4367 204.769 71.5004 205.257 69.6034L206.781 69.604V67.3737L211.735 66.9924L211.735 64.792L212.468 64.7926C212.625 66.0635 214.022 66.7676 216.659 66.9043C216.836 66.9043 218.985 66.8163 223.108 66.6403L223.108 115.811C223.128 115.811 223.148 115.821 223.168 115.84V116.016C224.79 116.388 227.086 116.535 230.056 116.457C231.834 116.418 234.326 116.329 237.531 116.193V116.163L237.678 116.164L237.678 97.328L238.821 97.3286V95.4797L239.231 95.4803V95.0983C242.495 95.059 244.664 94.6876 245.739 93.9835C246.345 93.7488 246.941 93.6608 247.527 93.7195L247.586 93.5435L247.41 72.8893L248.436 72.8899V92.1352C249.198 92.1159 250.566 92.1059 252.54 92.1059C252.013 92.4773 251.992 92.5266 252.481 92.2526V93.5728C252.5 93.5921 252.53 93.6021 252.568 93.6021C253.057 93.7195 254.181 93.7388 255.939 93.6608C256.428 93.9735 258.217 94.0909 261.304 94.0129L261.714 96.976L262.476 96.9766V96.5946C262.711 96.3406 262.828 96.4673 262.828 96.976C263.102 97.4061 263.219 98.5209 263.18 100.321C263.142 101.69 263.337 102.609 263.767 103.078C265.857 101.533 269.483 100.976 274.642 101.406C275.228 102.188 276.879 103.548 279.596 105.484L279.977 119.332C280.309 119.41 280.612 119.468 280.886 119.508C281.394 118.041 281.609 115.782 281.531 112.731C281.374 109.288 281.286 106.863 281.267 105.455C281.521 105.063 281.648 104.203 281.648 102.873L284.697 102.874L285.077 101.377C285.507 101.064 286.132 100.966 286.953 101.083C287.11 101.103 287.246 101.025 287.364 100.849L287.657 100.849V99.9686C287.676 99.8318 287.695 99.6852 287.715 99.5285C287.696 99.4891 287.677 99.4598 287.657 99.4404V96.5654L287.715 96.5659V97.2987C288.047 97.5722 288.331 97.9636 288.565 98.4723V101.523L288.8 101.524V101.347L288.917 101.348V99.3818C289.034 99.7533 289.142 100.174 289.24 100.643L289.62 100.644C289.659 100.174 289.689 99.9292 289.708 99.9098C289.708 99.8905 289.795 99.8805 289.972 99.8805V102.345L290.645 102.346V99.5579C290.88 99.9099 291.095 100.272 291.291 100.643C291.564 100.878 292.278 101.005 293.43 101.025C293.606 100.712 293.704 100.507 293.723 100.409C293.762 100.389 294.036 100.34 294.544 100.262C294.603 100.34 294.896 100.653 295.424 101.201C295.717 101.494 295.931 101.924 296.068 102.492L298.355 102.492C298.961 104.252 299.215 106.99 299.117 110.706C299.038 112.76 298.912 115.694 298.736 119.508L298.766 119.508V119.478C301.17 119.322 303.065 119.214 304.452 119.156V117.689C305.547 117.708 306.436 117.846 307.12 118.1C307.726 118.334 308.214 118.51 308.586 118.627V106.598L309.758 106.599L309.758 89.9343L311.341 89.9349C311.361 89.1715 311.477 88.4287 311.693 87.7046C311.927 86.9224 312.064 86.179 312.104 85.4749L315.973 85.4755C316.247 85.8463 316.96 86.4137 318.113 87.1765C319.07 87.802 319.656 88.4674 319.872 89.1715C320.381 89.9742 320.596 91.5972 320.517 94.0422Z" fill="#F2E9E4" stroke="#F2E9E4"/>
<path d="M106.518 81.0402L106.298 83.9404C106.066 85.2389 105.735 86.4796 105.304 87.6625C105.213 88.3261 104.343 89.9705 102.696 92.5956C101.238 94.6148 99.3839 96.4029 97.1322 97.9599C94.2198 99.7247 92.4187 100.66 91.7289 100.767C87.9253 102.175 83.7192 102.659 79.1105 102.218C75.5593 101.55 73.5068 101.044 72.9531 100.7C70.4123 99.7609 68.1323 98.4704 66.1133 96.828C58.6548 90.2955 56.5423 82.5429 59.7761 73.5699C63.8945 64.8221 71.4308 60.1879 82.3852 59.6672C85.4237 59.7351 88.2354 60.1851 90.8202 61.017C93.952 62.224 95.763 63.0628 96.2532 63.5334C97.3755 64.2359 98.4411 65.0338 99.4499 65.9272C100.459 66.8207 101.36 67.7644 102.153 68.7583C103.947 71.331 104.894 72.9348 104.994 73.5699C105.934 75.8591 106.442 78.3492 106.518 81.0402Z" fill="#F2E9E4"/>
<path d="M106.518 81.0402L106.298 83.9404C106.066 85.2389 105.735 86.4796 105.304 87.6625C105.213 88.3261 104.343 89.9705 102.696 92.5956C101.238 94.6148 99.3839 96.4029 97.1322 97.9599C94.2198 99.7247 92.4187 100.66 91.7289 100.767C87.9253 102.175 83.7192 102.659 79.1105 102.218C75.5593 101.55 73.5068 101.044 72.9531 100.7C70.4123 99.7609 68.1323 98.4704 66.1133 96.828C58.6548 90.2955 56.5423 82.5428 59.7761 73.5699C63.8945 64.8221 71.4308 60.1879 82.3852 59.6672C85.4237 59.7351 88.2354 60.1851 90.8202 61.017C93.952 62.224 95.763 63.0628 96.2532 63.5334C97.3755 64.2359 98.4411 65.0338 99.4499 65.9272C100.459 66.8207 101.36 67.7644 102.153 68.7583C103.947 71.331 104.894 72.9348 104.994 73.5699C105.934 75.8591 106.442 78.3492 106.518 81.0402" stroke="black"/>
<path d="M358.565 84.7378L358.345 87.6379C357.301 93.481 354.245 98.1542 349.179 101.657C344.078 105.158 338.07 106.577 331.157 105.916C324.56 104.991 319.283 102.285 315.327 97.7981C314.06 96.3478 313.016 94.7674 312.195 93.0571L311.161 90.4195C310.593 88.6047 310.305 86.7108 310.299 84.7378C310.471 78.683 312.828 73.6453 317.367 69.6248C321.907 65.6042 327.595 63.5175 334.432 63.3647C341.269 63.5175 346.957 65.6042 351.497 69.6248C356.036 73.6453 358.393 78.683 358.565 84.7378Z" fill="#F2E9E4"/>
<path d="M358.565 84.7378L358.345 87.6379C357.301 93.481 354.245 98.1542 349.179 101.657C344.078 105.158 338.07 106.577 331.157 105.916C324.56 104.991 319.283 102.285 315.327 97.7981C314.06 96.3478 313.016 94.7674 312.195 93.0571L311.161 90.4195C310.593 88.6047 310.305 86.7108 310.299 84.7378C310.471 78.683 312.828 73.6453 317.367 69.6248C321.907 65.6042 327.595 63.5175 334.432 63.3647C341.269 63.5175 346.957 65.6042 351.497 69.6248C356.036 73.6453 358.393 78.683 358.565 84.7378" stroke="black"/>
<path d="M373.38 137.016L371.933 137.187C365.072 137.532 344.999 137.808 311.713 138.015C278.196 138.221 238.728 138.305 193.309 138.266C149.962 138.211 115.294 138.052 89.3048 137.787C80.9776 137.701 74.1186 137.608 68.7277 137.507L61.9314 137.351C58.1975 137.244 56.3096 137.132 56.2676 137.016C57.4011 136.658 72.8811 136.361 102.708 136.123C132.534 135.886 169.906 135.763 214.824 135.754C259.741 135.763 297.114 135.886 326.94 136.123C356.767 136.361 372.247 136.658 373.38 137.016Z" fill="black" fill-opacity="0.32157"/>
<path d="M373.38 137.016L371.933 137.187C365.072 137.532 344.999 137.808 311.713 138.015C278.196 138.221 238.728 138.305 193.309 138.266C149.962 138.211 115.294 138.052 89.3048 137.787C80.9776 137.701 74.1186 137.608 68.7277 137.507L61.9314 137.351C58.1975 137.244 56.3096 137.132 56.2676 137.016C57.4011 136.658 72.8811 136.361 102.708 136.123C132.534 135.886 169.906 135.763 214.824 135.754C259.741 135.763 297.114 135.886 326.94 136.123C356.767 136.361 372.247 136.658 373.38 137.016" stroke="black"/>
<path d="M228.294 111.563C228.303 113.64 225.83 113.924 222.782 113.937C219.733 113.951 217.258 113.689 217.25 111.61L228.294 111.563Z" fill="#9EDFE5" stroke="black"/>
<path d="M182.077 126.857L182.012 127.857C181.696 129.873 180.766 131.487 179.222 132.698C177.667 133.908 175.834 134.4 173.723 134.176C171.709 133.86 170.097 132.929 168.887 131.383C168.499 130.884 168.18 130.339 167.928 129.75L167.611 128.84C167.437 128.215 167.348 127.561 167.345 126.881C167.394 124.792 168.11 123.053 169.494 121.664C170.877 120.275 172.612 119.552 174.699 119.496C176.786 119.546 178.523 120.263 179.911 121.647C181.299 123.032 182.021 124.768 182.077 126.857Z" fill="#4A4E69" stroke="black"/>
<path d="M252.784 126.095L252.744 127.132C252.475 129.226 251.558 130.921 249.994 132.217C248.42 133.513 246.538 134.074 244.348 133.9C242.256 133.63 240.562 132.713 239.267 131.148C238.852 130.642 238.507 130.088 238.23 129.485L237.876 128.553C237.678 127.911 237.568 127.238 237.546 126.534C237.538 124.372 238.231 122.553 239.623 121.078C241.015 119.602 242.789 118.806 244.946 118.689C247.106 118.681 248.923 119.374 250.398 120.767C251.872 122.161 252.668 123.937 252.784 126.095Z" fill="#4A4E69" stroke="black"/>
<path d="M174.845 126.24C174.386 126.241 174.015 126.616 174.017 127.076C174.019 127.536 174.393 127.907 174.852 127.905L174.845 126.24Z" fill="#323232" stroke="#22223B"/>
<path d="M174.855 128.603C174.66 128.603 174.503 128.762 174.504 128.957C174.505 129.152 174.663 129.309 174.858 129.309C175.053 129.308 175.21 129.149 175.209 128.954C175.208 128.759 175.05 128.602 174.855 128.603Z" fill="#323232" stroke="#22223B"/>
<path d="M175.794 129.682L175.807 132.541C176.641 132.395 177.412 132.063 178.073 131.589L176.045 129.576C175.963 129.615 175.88 129.651 175.794 129.682Z" fill="#9A8C98" stroke="#22223B"/>
<path d="M177.361 128.248L179.389 130.261C179.857 129.595 180.182 128.821 180.32 127.984L177.464 127.996C177.433 128.082 177.399 128.166 177.361 128.248V128.248Z" fill="#9A8C98" stroke="#22223B"/>
<path d="M177.351 125.875C177.39 125.956 177.425 126.04 177.456 126.126L180.313 126.113C180.167 125.278 179.835 124.507 179.362 123.845L177.351 125.875Z" fill="#9A8C98" stroke="#22223B"/>
<path d="M173.652 124.568C173.734 124.529 173.817 124.494 173.903 124.463L173.891 121.604C173.056 121.749 172.286 122.081 171.624 122.556L173.652 124.568Z" fill="#9A8C98" stroke="#22223B"/>
<path d="M174.842 125.541C175.037 125.541 175.194 125.382 175.193 125.187C175.192 124.992 175.034 124.835 174.839 124.835C174.644 124.836 174.487 124.995 174.488 125.19C174.489 125.385 174.647 125.542 174.842 125.541Z" fill="#323232" stroke="#22223B"/>
<path d="M178.034 122.527C177.369 122.059 176.596 121.734 175.76 121.595L175.772 124.454C175.858 124.485 175.942 124.519 176.023 124.558L178.034 122.527H178.034Z" fill="#9A8C98" stroke="#22223B"/>
<path d="M172.336 125.896L170.308 123.884C169.84 124.55 169.515 125.324 169.376 126.16L172.233 126.148C172.263 126.062 172.298 125.978 172.336 125.896H172.336Z" fill="#9A8C98" stroke="#22223B"/>
<path d="M171.663 131.617C172.328 132.085 173.101 132.41 173.937 132.549L173.925 129.69C173.839 129.659 173.755 129.625 173.674 129.586L171.663 131.617Z" fill="#9A8C98" stroke="#22223B"/>
<path d="M172.241 128.019L169.385 128.031C169.53 128.866 169.862 129.637 170.336 130.3L172.347 128.269C172.308 128.188 172.272 128.104 172.241 128.019V128.019Z" fill="#9A8C98" stroke="#22223B"/>
<path d="M173.32 127.079C173.319 126.884 173.16 126.726 172.965 126.727C172.771 126.728 172.613 126.887 172.614 127.082C172.809 127.081 172.966 126.922 172.965 126.727L173.32 127.079Z" fill="#323232" stroke="#22223B"/>
<path d="M176.377 127.065C176.378 127.26 176.537 127.418 176.732 127.417C176.926 127.416 177.084 127.257 177.083 127.062C176.888 127.063 176.731 127.222 176.732 127.417L176.377 127.065Z" fill="#323232" stroke="#22223B"/>
<path d="M174.809 117.982C169.793 118.004 165.745 122.091 165.766 127.112C165.788 132.132 169.872 136.184 174.888 136.163C179.904 136.141 183.953 132.054 183.931 127.033C183.909 122.013 179.826 117.961 174.809 117.982ZM174.877 133.565C171.294 133.581 168.377 130.686 168.361 127.1C168.346 123.514 171.238 120.595 174.821 120.579C178.404 120.564 181.321 123.458 181.336 127.044C181.351 130.63 178.459 133.55 174.877 133.565Z" fill="#4A4E69" stroke="#22223B"/>
<path d="M260.887 116.1C259.646 114.217 256.487 113.572 254.08 112.797C237.272 108.811 231.695 110.156 228.891 109.772C228.325 109.624 227.819 109.132 227.355 108.846C226.339 108.218 225.285 107.667 224.284 107.059C222.629 106.055 214.998 101.92 212.936 101.176C208.405 99.5409 201.249 98.2452 184.023 99.7009C183.323 99.5115 182.899 98.9484 182.155 98.7755C181.419 98.6047 180.745 98.9948 180.225 99.1173C180.237 99.6826 180.188 100.142 180.098 100.584C176.736 102.02 173.333 103.125 169.991 104.561C168.597 105.16 167.158 105.746 165.737 106.379C164.853 106.773 164.009 107.33 163.012 107.657C161.928 108.013 160.742 107.859 159.55 108.139C157.381 108.647 155.026 108.724 152.626 108.769C152.354 109.24 151.879 109.716 151.767 110.306C152.183 110.432 152.324 110.718 152.304 111.303C151.575 112.396 151.778 113.947 151.79 115.705C150.229 116.513 150.004 119.453 150.418 121.777L150.287 122.377C150.374 123.034 150.591 123.728 150.629 124.442C151.219 124.834 151.887 125.465 152.301 126.035C152.503 126.313 152.603 126.793 152.971 126.899C154.943 128.326 164.9 128.58 164.9 128.58L165.424 128.607C165.341 128.112 165.297 127.604 165.295 127.086C165.272 121.865 169.483 117.614 174.7 117.592C179.917 117.569 184.164 121.783 184.186 127.005C184.19 127.882 184.077 129.306 183.857 130.113L236.187 129.794C235.865 128.849 235.689 127.836 235.684 126.782C235.662 121.561 239.873 117.31 245.089 117.288C250.306 117.265 254.554 121.48 254.576 126.701C254.58 127.616 254.454 128.501 254.215 129.339L254.749 129.326C254.749 129.326 258.871 129.108 259.875 128.637C260.878 128.165 261.266 126.831 261.266 126.831L260.987 124.033C260.987 124.033 262.201 118.094 260.887 116.1ZM177.273 109.596C174.134 107.528 175.781 105.091 175.697 105.099C175.647 105.144 175.611 105.179 175.589 105.203C175.655 105.133 175.687 105.1 175.697 105.099C176.5 104.376 181.089 101.139 197.416 101.043C197.939 103.907 198.466 107.67 198.989 110.534C192.419 110.363 179.489 110.53 177.273 109.596ZM219.369 110.48C217.934 110.486 203.651 110.544 203.651 110.544C203.651 110.544 201.319 104.47 200.48 101.097C200.576 101.105 203.411 101.217 203.411 101.217C203.411 101.217 209.025 101.832 212.543 102.978C215.311 103.879 220.784 107.524 220.889 107.741C219.247 107.832 218.864 109.128 219.369 110.48Z" fill="#4A4E69"/>
<path d="M175.697 105.099C175.781 105.091 174.134 107.528 177.273 109.596C179.489 110.53 192.419 110.363 198.989 110.534C198.466 107.67 197.939 103.907 197.416 101.043C181.089 101.139 176.5 104.376 175.697 105.099ZM175.697 105.099C175.647 105.144 175.611 105.179 175.589 105.203C175.655 105.133 175.687 105.1 175.697 105.099ZM260.887 116.1C259.646 114.217 256.487 113.572 254.08 112.797C237.272 108.811 231.695 110.156 228.891 109.772C228.325 109.624 227.819 109.132 227.355 108.846C226.339 108.218 225.285 107.667 224.284 107.059C222.629 106.055 214.998 101.92 212.936 101.176C208.405 99.5409 201.249 98.2452 184.023 99.7009C183.323 99.5115 182.899 98.9484 182.155 98.7755C181.419 98.6047 180.745 98.9948 180.225 99.1173C180.237 99.6826 180.188 100.142 180.098 100.584C176.736 102.02 173.333 103.125 169.991 104.561C168.597 105.16 167.158 105.746 165.737 106.379C164.853 106.773 164.009 107.33 163.012 107.657C161.928 108.013 160.742 107.859 159.55 108.139C157.381 108.647 155.026 108.724 152.626 108.769C152.354 109.24 151.879 109.716 151.767 110.306C152.183 110.432 152.324 110.718 152.304 111.303C151.575 112.396 151.778 113.947 151.79 115.705C150.229 116.513 150.004 119.453 150.418 121.777L150.287 122.377C150.374 123.034 150.591 123.728 150.629 124.442C151.219 124.834 151.887 125.465 152.301 126.035C152.503 126.313 152.603 126.793 152.971 126.899C154.943 128.326 164.9 128.58 164.9 128.58L165.424 128.607C165.341 128.112 165.297 127.604 165.295 127.086C165.272 121.865 169.483 117.614 174.7 117.592C179.917 117.569 184.164 121.783 184.186 127.005C184.19 127.882 184.077 129.306 183.857 130.113L236.187 129.794C235.865 128.849 235.689 127.836 235.684 126.782C235.662 121.561 239.873 117.31 245.089 117.288C250.306 117.265 254.554 121.48 254.576 126.701C254.58 127.616 254.454 128.501 254.215 129.339L254.749 129.326C254.749 129.326 258.871 129.108 259.875 128.637C260.878 128.165 261.266 126.831 261.266 126.831L260.987 124.033C260.987 124.033 262.201 118.094 260.887 116.1ZM219.369 110.48C217.934 110.486 203.651 110.544 203.651 110.544C203.651 110.544 201.319 104.47 200.48 101.097C200.576 101.105 203.411 101.217 203.411 101.217C203.411 101.217 209.025 101.832 212.543 102.978C215.311 103.879 220.784 107.524 220.889 107.741C219.247 107.832 218.864 109.128 219.369 110.48Z" stroke="#22223B"/>
<path d="M245.286 125.865C244.827 125.868 244.456 126.242 244.458 126.702C244.46 127.162 244.834 127.533 245.293 127.531L245.286 125.865Z" fill="#323232" stroke="#22223B"/>
<path d="M245.297 128.229C245.102 128.229 244.944 128.388 244.945 128.583C244.946 128.778 245.105 128.935 245.299 128.935C245.494 128.934 245.651 128.775 245.651 128.58C245.65 128.385 245.491 128.228 245.297 128.229Z" fill="#323232" stroke="#22223B"/>
<path d="M246.236 129.308L246.248 132.167C247.083 132.022 247.853 131.689 248.515 131.215L246.486 129.202C246.405 129.241 246.321 129.277 246.236 129.308H246.236Z" fill="#9A8C98" stroke="#22223B"/>
<path d="M247.802 127.874L249.831 129.887C250.299 129.221 250.624 128.447 250.762 127.61L247.905 127.622C247.875 127.708 247.84 127.792 247.802 127.874Z" fill="#9A8C98" stroke="#22223B"/>
<path d="M247.792 125.501C247.831 125.582 247.866 125.666 247.898 125.752L250.754 125.739C250.609 124.904 250.277 124.133 249.803 123.471L247.792 125.501H247.792Z" fill="#9A8C98" stroke="#22223B"/>
<path d="M244.094 124.194C244.175 124.155 244.259 124.12 244.344 124.088L244.332 121.229C243.497 121.375 242.727 121.707 242.065 122.181L244.094 124.194Z" fill="#9A8C98" stroke="#22223B"/>
<path d="M245.283 125.167C245.478 125.167 245.635 125.008 245.635 124.813C245.634 124.618 245.475 124.461 245.28 124.461C245.086 124.462 244.928 124.621 244.929 124.816C244.93 125.011 245.089 125.168 245.283 125.167H245.283Z" fill="#323232" stroke="#22223B"/>
<path d="M248.475 122.153C247.81 121.685 247.037 121.359 246.201 121.221L246.213 124.08C246.299 124.11 246.383 124.145 246.464 124.183L248.475 122.153Z" fill="#9A8C98" stroke="#22223B"/>
<path d="M242.778 125.522L240.749 123.509C240.281 124.176 239.956 124.949 239.818 125.786L242.675 125.774C242.705 125.688 242.739 125.604 242.778 125.522Z" fill="#9A8C98" stroke="#22223B"/>
<path d="M242.104 131.243C242.77 131.711 243.543 132.036 244.379 132.175L244.367 129.316C244.281 129.285 244.197 129.251 244.115 129.212L242.104 131.243Z" fill="#9A8C98" stroke="#22223B"/>
<path d="M242.682 127.645L239.826 127.657C239.971 128.492 240.303 129.263 240.777 129.926L242.788 127.895C242.749 127.814 242.713 127.73 242.682 127.645Z" fill="#9A8C98" stroke="#22223B"/>
<path d="M243.761 126.704C243.76 126.509 243.601 126.352 243.406 126.353C243.211 126.354 243.054 126.512 243.055 126.707C243.25 126.706 243.407 126.548 243.406 126.353L243.761 126.704Z" fill="#323232" stroke="#22223B"/>
<path d="M246.819 126.691C246.82 126.886 246.978 127.043 247.173 127.043C247.368 127.042 247.525 126.883 247.524 126.688C247.329 126.689 247.172 126.848 247.173 127.043L246.819 126.691Z" fill="#323232" stroke="#22223B"/>
<path d="M245.251 117.608C240.234 117.63 236.186 121.717 236.207 126.737C236.229 131.758 240.313 135.81 245.329 135.788C250.345 135.767 254.394 131.679 254.372 126.659C254.351 121.639 250.267 117.586 245.251 117.608ZM245.318 133.191C241.735 133.206 238.818 130.312 238.802 126.726C238.787 123.14 241.679 120.221 245.262 120.205C248.845 120.19 251.762 123.084 251.777 126.67C251.793 130.256 248.901 133.176 245.318 133.191Z" fill="#4A4E69" stroke="#22223B"/>
<path d="M200.479 101.004C200.428 101.005 200.387 101.046 200.387 101.097C200.387 101.108 200.389 101.117 200.392 101.126L200.392 101.127C201.234 104.508 203.564 110.578 203.564 110.578C203.578 110.614 203.613 110.637 203.651 110.637L219.369 110.573C219.38 110.573 219.391 110.571 219.402 110.567L219.402 110.567C219.449 110.548 219.473 110.495 219.455 110.448C219.042 109.34 219.249 108.325 220.204 107.968L220.204 107.968C220.399 107.895 220.628 107.848 220.894 107.833C220.925 107.832 220.953 107.815 220.968 107.788C220.984 107.761 220.985 107.728 220.972 107.701C220.967 107.691 220.961 107.682 220.957 107.676V107.676C220.721 107.367 215.317 103.783 212.572 102.89V102.89C209.085 101.754 203.553 101.14 203.423 101.125L203.423 101.125C203.426 101.126 203.429 101.126 203.43 101.127L203.43 101.127L203.41 101.125L203.414 101.125C203.411 101.124 200.605 101.014 200.489 101.005L200.489 101.005C200.486 101.004 200.483 101.004 200.479 101.004Z" fill="#C9ADA7" stroke="#22223B"/>
<path d="M175.636 105.168C175.645 105.176 175.656 105.183 175.668 105.187C175.668 105.187 175.668 105.187 175.668 105.187C175.655 105.183 175.644 105.176 175.636 105.168ZM197.416 100.95C181.081 101.046 176.464 104.284 175.635 105.03C175.615 105.048 175.604 105.074 175.604 105.101C175.599 105.113 175.59 105.134 175.576 105.165C175.482 105.378 175.248 105.909 175.247 106.595C175.245 107.491 175.643 108.632 177.217 109.671C177.223 109.675 177.229 109.679 177.236 109.682C178.92 110.391 186.634 110.47 193.128 110.539C195.301 110.562 197.344 110.583 198.987 110.626C198.988 110.626 198.988 110.626 198.989 110.626C199.016 110.626 199.042 110.614 199.059 110.594C199.077 110.573 199.085 110.544 199.08 110.517C198.819 109.087 198.557 107.432 198.294 105.775C198.032 104.119 197.769 102.461 197.508 101.028L197.507 101.026C197.499 100.982 197.461 100.95 197.416 100.95Z" fill="#C9ADA7"/>
<path d="M175.634 105.166C175.64 105.172 175.647 105.177 175.655 105.181M175.668 105.187C175.656 105.183 175.645 105.176 175.636 105.168C175.644 105.176 175.655 105.183 175.668 105.187ZM175.668 105.187C175.668 105.187 175.668 105.187 175.668 105.187ZM197.416 100.95C181.081 101.046 176.464 104.284 175.635 105.03C175.615 105.048 175.604 105.074 175.604 105.101C175.599 105.113 175.59 105.134 175.576 105.165C175.482 105.378 175.248 105.909 175.247 106.595C175.245 107.491 175.643 108.632 177.217 109.671C177.223 109.675 177.229 109.679 177.236 109.682C178.92 110.391 186.634 110.47 193.128 110.539C195.301 110.562 197.344 110.583 198.987 110.626C198.988 110.626 198.988 110.626 198.989 110.626C199.016 110.626 199.042 110.614 199.059 110.594C199.077 110.573 199.085 110.544 199.08 110.517C198.819 109.087 198.557 107.432 198.294 105.775C198.032 104.119 197.769 102.461 197.508 101.028L197.507 101.026C197.499 100.982 197.461 100.95 197.416 100.95Z" stroke="#22223B"/>
<path d="M259.077 121.282C259.105 120.902 259.169 120.23 259.269 119.266C259.295 118.999 259.4 118.132 259.583 116.667L261.417 115.137C261.558 116.835 261.533 118.739 260.902 119.714C260.484 120.361 259.84 120.866 259.078 121.282H259.077Z" fill="#C9ADA7" stroke="#22223B"/>
<path d="M151.626 112.652L152.385 111.17C153.303 112.228 153.911 113.002 154.21 113.491C154.335 113.689 154.435 113.876 154.51 114.051L154.6 114.302L154.644 114.532L154.637 114.739L154.577 114.92L154.465 115.077L154.307 115.213L154.108 115.33C153.962 115.401 153.793 115.462 153.604 115.513C153.01 115.654 152.333 115.757 151.573 115.82L151.626 112.652Z" fill="#C9ADA7"/>
<path d="M151.626 112.652L152.385 111.17C153.303 112.228 153.911 113.002 154.21 113.491C154.335 113.689 154.435 113.876 154.51 114.051L154.6 114.302L154.644 114.532L154.637 114.739L154.577 114.92L154.465 115.077L154.307 115.213L154.108 115.33C153.962 115.401 153.793 115.462 153.604 115.513C153.01 115.654 152.333 115.757 151.573 115.82L151.626 112.652" stroke="#22223B"/>
<path d="M82.6018 64.0835L82.9678 64.0868C83.9468 64.1041 84.9491 64.1907 85.9747 64.3466C86.5997 64.3672 88.1549 64.8737 90.6402 65.8659C92.5539 66.7634 94.2543 67.9573 95.7415 69.4474C99.3912 73.2166 101.21 77.6749 101.197 82.8223L100.905 85.8964C100.21 88.5973 99.7036 90.1538 99.3869 90.5659C98.4901 92.4812 97.2973 94.1831 95.8085 95.6715C92.5095 99.1124 88.1554 100.923 82.7462 101.102C80.4367 101.14 78.249 100.752 76.183 99.9376C75.1728 99.5629 74.216 99.1142 73.3124 98.5913C71.1469 97.1546 69.9116 96.2037 69.6064 95.7385C67.831 93.7383 66.8452 92.462 66.6491 91.9096C66.1034 90.9799 65.6481 90.0197 65.2833 89.029C64.5537 87.0477 64.186 84.9444 64.1802 82.719C64.1425 80.3538 64.5304 78.1463 65.3439 76.0965C65.7183 75.0855 66.1667 74.1278 66.6891 73.2236C66.8578 72.7047 67.8079 71.4683 69.5394 69.5144C72.8384 66.0736 77.1925 64.2633 82.6018 64.0835L82.6018 64.0835ZM83.0294 50.7249L78.6338 51.0209C69.7788 52.4236 62.6967 56.5277 57.3876 63.3333C55.6865 65.5332 54.2853 67.9302 53.184 70.5244L51.7956 74.5249L50.9343 78.7439C50.617 82.4535 50.54 84.609 50.7034 85.2105C50.7469 90.1966 52.692 95.7261 56.5386 101.799L80.4762 132.919C81.31 133.823 82.2439 134.234 83.278 134.152C84.3733 133.984 85.206 133.494 85.776 132.682L110.588 100.182C114.078 93.8736 115.689 88.1938 115.42 83.1427C115.188 73.9592 112.026 66.3182 105.933 60.2199C99.8397 54.1217 92.2053 50.9567 83.0294 50.7249Z" fill="#4A4E69" stroke="#4A4E69"/>
<path d="M334.843 64.0837L335.209 64.087C336.188 64.1043 337.19 64.1909 338.216 64.3467C338.841 64.3673 340.396 64.8738 342.881 65.8661C344.795 66.7637 346.496 67.9575 347.983 69.4476C351.632 73.2168 353.451 77.6751 353.438 82.8225L353.146 85.8966C352.451 88.5975 351.945 90.154 351.628 90.5662C350.731 92.4815 349.538 94.1833 348.049 95.6717C344.75 99.1125 340.396 100.923 334.987 101.103C332.678 101.14 330.49 100.752 328.424 99.9377C327.414 99.5631 326.457 99.1143 325.553 98.5915C323.388 97.1548 322.153 96.2039 321.847 95.7387C320.072 93.7386 319.086 92.4623 318.89 91.9098C318.344 90.9801 317.889 90.0199 317.524 89.0292C316.795 87.0479 316.427 84.9446 316.421 82.7193C316.384 80.3541 316.772 78.1465 317.585 76.0966C317.959 75.0857 318.408 74.1281 318.93 73.2238C319.099 72.705 320.049 71.4686 321.781 69.5147C325.08 66.0738 329.434 64.2635 334.843 64.0837V64.0837ZM335.271 50.7251L330.875 51.0212C322.02 52.4239 314.938 56.528 309.629 63.3335C307.928 65.5335 306.527 67.9305 305.425 70.5247L304.037 74.5252L303.176 78.7441C302.858 82.4537 302.781 84.6092 302.945 85.2107C302.988 90.1969 304.933 95.7264 308.78 101.799L332.717 132.919C333.551 133.823 334.485 134.234 335.519 134.152C336.614 133.984 337.447 133.494 338.017 132.682L362.829 100.182C366.319 93.8737 367.93 88.194 367.661 83.1429C367.429 73.9594 364.267 66.3185 358.174 60.2201C352.081 54.1219 344.446 50.9569 335.271 50.7251V50.7251Z" fill="#4A4E69" stroke="#4A4E69"/>
</svg>
