<svg width="34" height="34" viewBox="0 0 34 34" fill="none" xmlns="http://www.w3.org/2000/svg">
<path d="M12.0506 24.369C12.879 24.369 13.5506 23.6975 13.5506 22.869C13.5506 22.0406 12.879 21.369 12.0506 21.369V24.369ZM11.3074 7.57473L11.4193 9.07055L12.4217 8.99553L12.7334 8.0399L11.3074 7.57473ZM25.6209 9.81641L24.1489 10.1052L24.3692 11.2277L25.5099 11.3123L25.6209 9.81641ZM23.2795 21.369C22.4511 21.369 21.7795 22.0406 21.7795 22.869C21.7795 23.6975 22.4511 24.369 23.2795 24.369V21.369ZM18.9801 16.5405C18.9801 15.7121 18.3085 15.0405 17.4801 15.0405C16.6517 15.0405 15.9801 15.7121 15.9801 16.5405H18.9801ZM17.4801 32.23L16.302 33.1585C16.5864 33.5194 17.0206 33.73 17.4801 33.73C17.9396 33.73 18.3738 33.5194 18.6582 33.1585L17.4801 32.23ZM13.5316 27.2199V25.7199C12.9569 25.7199 12.4328 26.0482 12.182 26.5652C11.9312 27.0822 11.9978 27.6971 12.3535 28.1484L13.5316 27.2199ZM21.4287 27.2199L22.6068 28.1484C22.9625 27.6971 23.029 27.0822 22.7782 26.5652C22.5274 26.0482 22.0033 25.7199 21.4287 25.7199V27.2199ZM12.0506 21.369C6.23057 21.369 3.83149 18.2195 3.74111 15.518C3.6498 12.7885 5.86688 9.48611 11.4193 9.07055L11.1954 6.07892C4.41218 6.58659 0.586 10.9314 0.742789 15.6183C0.90051 20.333 5.04087 24.369 12.0506 24.369V21.369ZM12.7334 8.0399C13.3552 6.1338 14.3123 4.99529 15.3059 4.37956C16.2986 3.76438 17.4508 3.59315 18.6227 3.83593C20.994 4.32721 23.4508 6.54745 24.1489 10.1052L27.0928 9.52756C26.1869 4.91096 22.906 1.65963 19.2313 0.898308C17.3801 0.514784 15.4321 0.771992 13.7256 1.82951C12.02 2.88647 10.6788 4.66493 9.88134 7.10956L12.7334 8.0399ZM25.5099 11.3123C29.173 11.5841 30.8847 14.1734 30.7283 16.4889C30.6492 17.6602 30.0967 18.8408 28.9576 19.7498C27.812 20.664 25.9835 21.369 23.2795 21.369V24.369C26.4997 24.369 29.0365 23.5249 30.8288 22.0947C32.6276 20.6593 33.5858 18.7004 33.7215 16.691C33.9948 12.6449 30.953 8.70794 25.7319 8.32052L25.5099 11.3123ZM15.9801 16.5405V32.23H18.9801V16.5405H15.9801ZM18.6582 31.3016L14.7097 26.2915L12.3535 28.1484L16.302 33.1585L18.6582 31.3016ZM13.5316 28.7199H21.4287V25.7199H13.5316V28.7199ZM20.2506 26.2915L16.302 31.3016L18.6582 33.1585L22.6068 28.1484L20.2506 26.2915Z" fill="#22223B"/>
</svg>
