<svg width="30" height="30" viewBox="0 0 30 30" fill="none" xmlns="http://www.w3.org/2000/svg">
<path d="M0.152573 26.0611L7.25308 19.0143C5.97973 17.083 5.23299 14.7747 5.23299 12.284C5.23299 5.49241 10.7796 -2.96869e-07 17.623 0C24.4534 2.96306e-07 30 5.49177 30 12.284C30 19.064 24.4534 24.5667 17.623 24.5667C15.2341 24.5667 13.0081 23.8991 11.1225 22.7442L3.97262 29.8413C3.60445 30.217 2.68629 29.9019 1.92851 29.1479L0.861001 28.091C0.103225 27.337 -0.214303 26.4258 0.152573 26.0611ZM17.623 20.4849C22.1898 20.4849 25.8871 16.8149 25.8871 12.2833C25.8871 7.75111 22.1898 4.07017 17.623 4.07017C13.0562 4.07017 9.34719 7.75111 9.34719 12.2833C9.34719 16.8149 13.0556 20.4849 17.623 20.4849Z" fill="#4A4E69"/>
</svg>
