<svg width="421" height="142" viewBox="0 0 421 142" fill="none" xmlns="http://www.w3.org/2000/svg">
<path fill-rule="evenodd" clip-rule="evenodd" d="M90.0529 107.669C90.0529 105.934 91.4599 104.527 93.1951 104.527C94.9307 104.527 96.3372 105.934 96.3372 107.669C96.3372 109.404 94.9302 110.811 93.1951 110.811C91.4599 110.811 90.0529 109.404 90.0529 107.669ZM91.8632 114.776C91.8632 114.04 92.4598 113.443 93.1951 113.443C93.9308 113.443 94.527 114.04 94.527 114.776C94.527 115.511 93.9308 116.108 93.1951 116.108C92.4593 116.108 91.8632 115.511 91.8632 114.776ZM96.7248 128.32V117.532C97.0487 117.416 97.3641 117.283 97.6719 117.137L105.3 124.765C102.793 126.543 99.8797 127.784 96.7248 128.32ZM110.292 119.774L102.665 112.147C102.81 111.839 102.941 111.522 103.057 111.198H113.846C113.31 114.353 112.071 117.268 110.292 119.774ZM103.058 104.14C102.942 103.816 102.81 103.5 102.664 103.192L110.292 95.564C112.07 98.0711 113.311 100.985 113.846 104.14H103.058ZM89.6663 97.8065C89.3423 97.9224 89.0269 98.0549 88.7187 98.2012L81.0911 90.5732C83.5977 88.7952 86.5113 87.5541 89.6663 87.0187V97.8065ZM58.8944 107.669C58.8944 88.7254 74.2516 73.3687 93.1951 73.3687C112.139 73.3687 127.496 88.7254 127.496 107.669C127.496 126.613 112.139 141.97 93.1951 141.97C74.2516 141.97 58.8944 126.613 58.8944 107.669ZM68.6946 107.668C68.6946 121.2 79.6637 132.169 93.1951 132.169C106.726 132.169 117.696 121.2 117.696 107.668C117.696 94.1376 106.726 83.1679 93.1951 83.1679C79.6637 83.1679 68.6946 94.1376 68.6946 107.668ZM94.527 100.561C94.527 101.296 93.9308 101.893 93.1951 101.893C92.4598 101.893 91.8636 101.296 91.8632 100.561C91.8632 99.8252 92.4598 99.2286 93.1951 99.2286C93.9308 99.2286 94.527 99.8252 94.527 100.561ZM96.7248 87.0178C99.8793 87.5531 102.794 88.7938 105.3 90.5717L97.6724 98.1998C97.3646 98.0535 97.0487 97.9214 96.7248 97.8055V87.0178ZM76.0989 95.5626L83.7264 103.191C83.5801 103.498 83.4495 103.815 83.3336 104.139H72.5449C73.0802 100.984 74.3205 98.0691 76.0989 95.5626ZM89.6663 128.319C86.5113 127.783 83.5967 126.543 81.0902 124.765L88.7182 117.137C89.026 117.283 89.3423 117.415 89.6663 117.531V128.319ZM72.5449 111.197H83.3326C83.4485 111.521 83.5811 111.837 83.7269 112.145L76.0989 119.773C74.3209 117.266 73.0802 114.352 72.5449 111.197ZM86.0886 106.336C86.8244 106.336 87.4205 106.932 87.4205 107.667C87.4205 108.403 86.8239 108.999 86.0886 108.999C85.3528 108.999 84.7567 108.403 84.7567 107.667C84.7567 106.932 85.3528 106.336 86.0886 106.336ZM100.302 108.999C99.5662 108.999 98.9701 108.403 98.9701 107.667C98.9701 106.932 99.5662 106.336 100.302 106.336C101.038 106.336 101.634 106.932 101.634 107.667C101.634 108.403 101.038 108.999 100.302 108.999ZM355.886 107.668C355.886 105.933 357.293 104.526 359.028 104.526C360.763 104.526 362.17 105.933 362.17 107.668C362.17 109.403 360.763 110.81 359.028 110.81C357.293 110.81 355.886 109.403 355.886 107.668ZM355.499 97.8055C355.175 97.9214 354.859 98.0539 354.551 98.2002L346.923 90.5722C349.43 88.7943 352.344 87.5531 355.499 87.0178V97.8055ZM357.696 114.775C357.696 114.039 358.292 113.443 359.028 113.443C359.763 113.443 360.359 114.039 360.36 114.775C360.36 115.51 359.764 116.107 359.028 116.107C358.292 116.107 357.696 115.51 357.696 114.775ZM362.557 128.319V117.531C362.881 117.415 363.196 117.282 363.504 117.136L371.132 124.764C368.625 126.542 365.712 127.783 362.557 128.319ZM368.497 112.146C368.642 111.838 368.773 111.521 368.889 111.197H379.678C379.143 114.352 377.903 117.267 376.125 119.773L368.497 112.146ZM397.691 56.6364C405.836 59.0992 414.809 61.8127 418.703 67.7727H418.7C423.628 75.3181 418.951 97.7048 418.951 97.7048L419.957 108.269C419.957 108.269 418.472 113.297 414.675 115.06C410.878 116.823 395.308 117.576 395.308 117.576L393.288 117.618C394.204 114.46 394.696 111.122 394.696 107.669C394.696 87.9668 378.725 71.9954 359.023 71.9954C339.321 71.9954 323.349 87.9668 323.349 107.669C323.349 111.645 324 115.469 325.201 119.041L127.567 119.39C128.411 116.35 128.863 110.977 128.863 107.668C128.863 87.9664 112.892 71.995 93.1898 71.995C73.4883 71.995 57.5164 87.9664 57.5164 107.668C57.5164 109.622 57.676 111.539 57.9786 113.407L56.0007 113.299C56.0007 113.299 18.4025 112.179 10.9778 106.759C10.0172 106.48 9.54466 105.526 9.09392 104.616C8.89294 104.211 8.6963 103.814 8.46266 103.489C6.90941 101.332 4.39381 98.9408 2.17461 97.4526C2.09454 95.8418 1.77378 94.2571 1.46123 92.713C1.25093 91.674 1.04434 90.6533 0.917287 89.6555L1.42031 87.3911C-0.105864 78.615 0.792838 67.5281 6.70231 64.5023C6.69913 63.3343 6.67346 62.1903 6.64845 61.0758C6.53138 55.8598 6.42878 51.2881 8.71441 47.9016C8.79801 45.6957 8.27219 44.6136 6.70231 44.1291C6.99933 42.5975 7.94859 41.2718 8.84905 40.0143C9.25471 39.4477 9.65046 38.8951 9.97221 38.3436C19.0357 38.2158 27.9291 37.9641 36.1309 36.0798C38.1854 35.6078 40.2342 35.4754 42.2436 35.3455C44.6408 35.1906 46.9821 35.0393 49.2105 34.3194C51.5746 33.5551 53.7124 32.4491 55.8025 31.3678C57.047 30.724 58.2745 30.0889 59.5228 29.5399C62.9182 28.0472 66.3402 26.6242 69.7297 25.2147C71.7083 24.3919 73.6758 23.5737 75.6205 22.7489C82.0062 20.0408 88.4494 17.6509 94.9015 15.2577C101.225 12.9122 107.557 10.5635 113.852 7.90892C114.201 6.24025 114.391 4.50888 114.355 2.37565C114.885 2.25354 115.457 2.0584 116.064 1.85124C117.712 1.28885 119.62 0.637771 121.649 1.11785C123.108 1.46289 124.239 2.2042 125.36 2.93863C126.396 3.61767 127.423 4.29082 128.692 4.6395C193.768 -0.572201 220.774 4.43335 237.856 10.6758C245.631 13.5173 274.384 29.2445 280.616 33.0616C282.388 34.1474 284.205 35.1862 286.03 36.2297C288.088 37.4066 290.157 38.5896 292.186 39.8531C292.728 40.1907 293.285 40.603 293.859 41.0281C295.136 41.9731 296.498 42.9815 297.971 43.3743C300.5 43.7309 303.629 43.7175 307.793 43.6997C321.05 43.643 344.793 43.5414 393.047 55.1961C394.534 55.6816 396.096 56.1542 397.691 56.6364ZM202.639 45.8752C202.639 45.8752 256.581 45.8899 262 45.8899C260.117 40.7794 261.584 35.8955 267.784 35.5782C267.391 34.7597 246.783 20.9135 236.344 17.4683C223.076 13.0893 201.885 10.6768 201.885 10.6768C201.885 10.6768 191.18 10.2089 190.818 10.1756C193.932 22.9184 202.639 45.8752 202.639 45.8752ZM324.723 107.668C324.723 88.7245 340.08 73.3677 359.024 73.3677C377.967 73.3677 393.324 88.7245 393.324 107.668C393.324 126.612 377.968 141.969 359.024 141.969C340.08 141.969 324.723 126.612 324.723 107.668ZM334.523 107.667C334.523 121.199 345.493 132.168 359.024 132.168C372.555 132.168 383.524 121.199 383.524 107.667C383.524 94.1366 372.555 83.167 359.024 83.167C345.493 83.167 334.523 94.1366 334.523 107.667ZM341.926 95.5616L349.554 103.19C349.408 103.497 349.278 103.814 349.162 104.138H338.373C338.908 100.983 340.148 98.0682 341.926 95.5616ZM351.916 106.335C352.652 106.335 353.249 106.931 353.249 107.667C353.249 108.402 352.652 108.998 351.916 108.998C351.181 108.998 350.584 108.402 350.584 107.667C350.584 106.931 351.181 106.335 351.916 106.335ZM360.355 100.56C360.355 101.295 359.759 101.892 359.024 101.892C358.288 101.892 357.692 101.295 357.692 100.56C357.692 99.8243 358.288 99.2277 359.024 99.2277C359.759 99.2277 360.355 99.8243 360.355 100.56ZM362.553 87.0168C365.708 87.5522 368.622 88.7929 371.128 90.5708L363.5 98.1988C363.193 98.0525 362.877 97.9205 362.553 97.8046V87.0168ZM366.131 108.998C365.395 108.998 364.798 108.402 364.798 107.667C364.798 106.931 365.395 106.335 366.131 106.335C366.866 106.335 367.462 106.931 367.462 107.667C367.462 108.402 366.866 108.998 366.131 108.998ZM355.494 128.318C352.339 127.782 349.425 126.542 346.918 124.764L354.546 117.136C354.854 117.282 355.17 117.414 355.494 117.53V128.318ZM338.373 111.196H349.161C349.277 111.52 349.409 111.836 349.555 112.144L341.927 119.772C340.149 117.265 338.908 114.351 338.373 111.196ZM379.674 104.138H368.886C368.77 103.814 368.638 103.498 368.492 103.19L376.12 95.5621C377.898 98.0692 379.138 100.983 379.674 104.138ZM97.3524 25.3782C96.4783 27.1668 92.6621 34.9752 103.037 41.8681H103.035C109.299 44.5358 138.316 44.9677 162.903 45.3337C171.111 45.4558 178.825 45.5706 185.034 45.7588C184.07 40.3536 183.106 34.1003 182.143 27.8466C181.178 21.589 180.213 15.3311 179.249 9.92198C117.587 10.0184 100.546 22.2859 97.5 25C97.539 24.9965 97.4743 25.1288 97.3524 25.3782Z" fill="#22223B"/>
<path d="M97.5 25C100.546 22.2859 117.587 10.0184 179.249 9.92198C180.213 15.3311 181.178 21.589 182.143 27.8466C183.106 34.1003 184.07 40.3536 185.034 45.7588C178.825 45.5706 171.111 45.4558 162.903 45.3337C138.316 44.9677 109.299 44.5358 103.035 41.8681H103.037C92.6621 34.9752 96.4783 27.1668 97.3524 25.3782C97.4743 25.1288 97.539 24.9965 97.5 25Z" fill="#F2E9E4"/>
<path d="M262 45.8899C256.581 45.8899 202.639 45.8752 202.639 45.8752C202.639 45.8752 193.932 22.9184 190.818 10.1756C191.18 10.2089 201.885 10.6768 201.885 10.6768C201.885 10.6768 223.076 13.0893 236.344 17.4683C246.783 20.9135 267.391 34.7597 267.784 35.5782C261.584 35.8955 260.117 40.7794 262 45.8899Z" fill="#F2E9E4"/>
<path fill-rule="evenodd" clip-rule="evenodd" d="M93.1951 132.169C79.6637 132.169 68.6946 121.2 68.6946 107.668C68.6946 94.1376 79.6637 83.1679 93.1951 83.1679C106.726 83.1679 117.696 94.1376 117.696 107.668C117.696 121.2 106.726 132.169 93.1951 132.169ZM90.0529 107.669C90.0529 105.934 91.4599 104.527 93.1951 104.527C94.9307 104.527 96.3372 105.934 96.3372 107.669C96.3372 109.404 94.9302 110.811 93.1951 110.811C91.4599 110.811 90.0529 109.404 90.0529 107.669ZM91.8632 114.776C91.8632 114.04 92.4598 113.443 93.1951 113.443C93.9308 113.443 94.527 114.04 94.527 114.776C94.527 115.511 93.9308 116.108 93.1951 116.108C92.4593 116.108 91.8632 115.511 91.8632 114.776ZM96.7248 128.32V117.532C97.0487 117.416 97.3641 117.283 97.6719 117.137L105.3 124.765C102.793 126.543 99.8797 127.784 96.7248 128.32ZM110.292 119.774L102.665 112.147C102.81 111.839 102.941 111.522 103.057 111.198H113.846C113.31 114.353 112.071 117.268 110.292 119.774ZM103.058 104.14C102.942 103.816 102.81 103.5 102.664 103.192L110.292 95.564C112.07 98.0711 113.311 100.985 113.846 104.14H103.058ZM89.6663 97.8065C89.3423 97.9224 89.0269 98.0549 88.7187 98.2012L81.0911 90.5732C83.5977 88.7952 86.5113 87.5541 89.6663 87.0187V97.8065ZM94.527 100.561C94.527 101.296 93.9308 101.893 93.1951 101.893C92.4598 101.893 91.8636 101.296 91.8632 100.561C91.8632 99.8252 92.4598 99.2286 93.1951 99.2286C93.9308 99.2286 94.527 99.8252 94.527 100.561ZM96.7248 87.0178C99.8793 87.5531 102.794 88.7938 105.3 90.5717L97.6724 98.1998C97.3646 98.0535 97.0487 97.9214 96.7248 97.8055V87.0178ZM76.0989 95.5626L83.7264 103.191C83.5801 103.498 83.4495 103.815 83.3336 104.139H72.5449C73.0802 100.984 74.3205 98.0691 76.0989 95.5626ZM89.6663 128.319C86.5113 127.783 83.5967 126.543 81.0902 124.765L88.7182 117.137C89.026 117.283 89.3423 117.415 89.6663 117.531V128.319ZM72.5449 111.197H83.3326C83.4485 111.521 83.5811 111.837 83.7269 112.145L76.0989 119.773C74.3209 117.266 73.0802 114.352 72.5449 111.197ZM86.0886 106.336C86.8244 106.336 87.4205 106.932 87.4205 107.667C87.4205 108.403 86.8239 108.999 86.0886 108.999C85.3528 108.999 84.7567 108.403 84.7567 107.667C84.7567 106.932 85.3528 106.336 86.0886 106.336ZM100.302 108.999C99.5662 108.999 98.9701 108.403 98.9701 107.667C98.9701 106.932 99.5662 106.336 100.302 106.336C101.038 106.336 101.634 106.932 101.634 107.667C101.634 108.403 101.038 108.999 100.302 108.999Z" fill="#F2E9E4"/>
<path fill-rule="evenodd" clip-rule="evenodd" d="M359.024 132.168C345.493 132.168 334.523 121.199 334.523 107.667C334.523 94.1366 345.493 83.167 359.024 83.167C372.555 83.167 383.524 94.1366 383.524 107.667C383.524 121.199 372.555 132.168 359.024 132.168ZM355.886 107.668C355.886 105.933 357.293 104.526 359.028 104.526C360.763 104.526 362.17 105.933 362.17 107.668C362.17 109.403 360.763 110.81 359.028 110.81C357.293 110.81 355.886 109.403 355.886 107.668ZM355.499 97.8055C355.175 97.9214 354.859 98.0539 354.551 98.2002L346.923 90.5722C349.43 88.7943 352.344 87.5531 355.499 87.0178V97.8055ZM357.696 114.775C357.696 114.039 358.292 113.443 359.028 113.443C359.763 113.443 360.359 114.039 360.36 114.775C360.36 115.51 359.764 116.107 359.028 116.107C358.292 116.107 357.696 115.51 357.696 114.775ZM362.557 128.319V117.531C362.881 117.415 363.196 117.282 363.504 117.136L371.132 124.764C368.625 126.542 365.712 127.783 362.557 128.319ZM368.497 112.146C368.642 111.838 368.773 111.521 368.889 111.197H379.678C379.143 114.352 377.903 117.267 376.125 119.773L368.497 112.146ZM341.926 95.5616L349.554 103.19C349.408 103.497 349.278 103.814 349.162 104.138H338.373C338.908 100.983 340.148 98.0682 341.926 95.5616ZM351.916 106.335C352.652 106.335 353.249 106.931 353.249 107.667C353.249 108.402 352.652 108.998 351.916 108.998C351.181 108.998 350.584 108.402 350.584 107.667C350.584 106.931 351.181 106.335 351.916 106.335ZM360.355 100.56C360.355 101.295 359.759 101.892 359.024 101.892C358.288 101.892 357.692 101.295 357.692 100.56C357.692 99.8243 358.288 99.2277 359.024 99.2277C359.759 99.2277 360.355 99.8243 360.355 100.56ZM362.553 87.0168C365.708 87.5522 368.622 88.7929 371.128 90.5708L363.5 98.1988C363.193 98.0525 362.877 97.9205 362.553 97.8046V87.0168ZM366.131 108.998C365.395 108.998 364.798 108.402 364.798 107.667C364.798 106.931 365.395 106.335 366.131 106.335C366.866 106.335 367.462 106.931 367.462 107.667C367.462 108.402 366.866 108.998 366.131 108.998ZM355.494 128.318C352.339 127.782 349.425 126.542 346.918 124.764L354.546 117.136C354.854 117.282 355.17 117.414 355.494 117.53V128.318ZM338.373 111.196H349.161C349.277 111.52 349.409 111.836 349.555 112.144L341.927 119.772C340.149 117.265 338.908 114.351 338.373 111.196ZM379.674 104.138H368.886C368.77 103.814 368.638 103.498 368.492 103.19L376.12 95.5621C377.898 98.0692 379.138 100.983 379.674 104.138Z" fill="#F2E9E4"/>
</svg>
